<svg version="1.1" id="Layer_1" xmlns="http://www.w3.org/2000/svg" xmlns:xlink="http://www.w3.org/1999/xlink" x="0px" y="0px"
	 width="75" height="75" viewBox="0 0 500 500" enable-background="new 0 0 500 500" xml:space="preserve">
<path fill="#FFFFFF" opacity="0.75000" stroke="none" 
	d="
M228.000000,501.000000 
	C152.000015,501.000000 76.500038,501.000000 1.000041,501.000000 
	C1.000027,334.333405 1.000027,167.666779 1.000013,1.000130 
	C167.666565,1.000087 334.333130,1.000087 500.999756,1.000043 
	C500.999847,167.666534 500.999847,334.333069 500.999939,500.999817 
	C410.166656,501.000000 319.333344,501.000000 228.000000,501.000000 
M313.904541,164.363022 
	C315.960754,162.857880 318.016998,161.352722 320.961182,159.197586 
	C320.961182,196.999313 320.961182,233.561447 320.961182,270.343903 
	C325.549194,270.343903 329.623016,270.343903 333.698120,270.343903 
	C333.698120,224.048019 333.698120,178.076141 333.698120,131.430328 
	C331.610870,132.957794 330.130188,133.987244 328.707031,135.090866 
	C304.752106,153.667343 280.766724,172.205032 256.903717,190.898880 
	C253.995422,193.177155 252.027023,193.193176 249.209808,190.844055 
	C242.687988,185.405853 235.910019,180.273712 229.209030,175.051971 
	C222.724777,169.999115 216.206909,164.989426 208.947083,159.375641 
	C208.947083,164.819016 208.626801,169.150696 209.081085,173.399567 
	C209.311096,175.550781 210.407394,178.211517 212.021744,179.516663 
	C224.195999,189.359268 236.677521,198.821487 248.868866,208.643555 
	C251.893463,211.080322 253.829376,211.124817 256.935608,208.675171 
	C275.637329,193.926559 294.530365,179.420578 313.904541,164.363022 
M188.109253,204.500000 
	C188.109253,226.402786 188.109253,248.305573 188.109253,270.673462 
	C191.438339,270.673462 194.106079,270.393524 196.692413,270.733276 
	C201.677765,271.388184 202.692093,269.250000 202.668793,264.579926 
	C202.482880,227.288315 202.561981,189.995377 202.574661,152.702835 
	C202.575241,150.978943 202.716278,149.255081 202.828873,146.688431 
	C219.314011,159.496582 235.044342,171.718277 251.621582,184.597992 
	C251.621582,179.593475 251.402527,175.937134 251.681244,172.319122 
	C251.978836,168.456177 250.672058,165.956360 247.478989,163.562500 
	C233.367920,152.983398 219.499329,142.081116 205.528168,131.315018 
	C200.068604,127.107918 194.570251,122.951126 188.109360,118.023872 
	C188.109360,147.381912 188.109360,175.440948 188.109253,204.500000 
M314.134430,194.500336 
	C314.134430,187.922195 314.134430,181.344070 314.134430,173.938126 
	C312.072968,175.396942 310.723114,176.273483 309.458221,177.259125 
	C292.139343,190.754822 274.848969,204.287079 257.513458,217.761368 
	C251.178711,222.685165 249.028107,231.197311 252.510681,239.216400 
	C268.191345,227.170746 283.798248,215.181747 300.267853,202.530029 
	C300.267853,205.992996 300.267853,208.269379 300.267853,210.545776 
	C300.267914,229.024323 300.212250,247.503342 300.367920,265.980560 
	C300.381165,267.551453 301.627655,270.317108 302.604004,270.460083 
	C306.267487,270.996582 310.056610,270.674988 314.134644,270.674988 
	C314.134644,245.076080 314.134644,220.288132 314.134430,194.500336 
M181.163788,225.500000 
	C181.163773,199.178223 181.163757,172.856461 181.163727,146.534683 
	C181.163712,138.418106 176.371704,132.141037 168.263855,129.569824 
	C168.263855,176.442307 168.263855,223.335358 168.263855,270.326904 
	C172.680267,270.326904 176.728638,270.326904 181.164017,270.326904 
	C181.164017,255.449417 181.164017,240.974701 181.163788,225.500000 
M165.034607,309.401306 
	C161.814941,314.491974 158.595261,319.582672 154.995880,325.273712 
	C151.893753,320.303162 149.411377,316.372925 146.976471,312.413483 
	C143.012238,305.967163 141.369736,305.333588 133.391968,307.353851 
	C133.391968,324.390137 133.391968,341.451660 133.391968,358.607178 
	C136.956100,358.607178 140.157852,358.607178 143.938721,358.607178 
	C143.938721,347.726898 143.938721,337.237762 143.938721,326.748627 
	C146.637207,329.511688 148.353973,332.501038 150.212296,335.399597 
	C153.102631,339.907867 156.996933,339.883301 159.888992,335.360535 
	C161.756744,332.439667 163.526550,329.456116 165.340240,326.500671 
	C165.769394,326.657928 166.198547,326.815186 166.627701,326.972473 
	C166.627701,337.545624 166.627701,348.118774 166.627701,358.706757 
	C170.291412,358.706757 173.382568,358.706757 176.741867,358.706757 
	C176.741867,341.343048 176.741867,324.283722 176.741867,305.680725 
	C172.570923,306.815979 168.996643,307.788849 165.034607,309.401306 
M204.009918,332.883057 
	C205.159515,332.000458 206.211807,330.578888 207.479431,330.350037 
	C209.946426,329.904633 212.738449,329.531982 214.992798,330.304840 
	C216.278519,330.745605 216.768753,333.506653 217.770447,335.532898 
	C211.942108,336.159912 207.092438,336.256958 202.450653,337.289032 
	C196.708435,338.565735 193.753922,343.211761 193.993973,349.184998 
	C194.214371,354.669067 197.156952,358.483459 203.210083,359.114990 
	C207.575729,359.570404 212.110580,358.403870 216.605850,357.957184 
	C219.973038,358.377075 223.662857,358.837219 227.901581,359.365784 
	C227.901581,349.260101 228.418152,340.108673 227.610779,331.075562 
	C227.341934,328.067719 224.248260,324.458527 221.454102,322.702057 
	C214.968216,318.624847 207.763000,318.934418 200.994919,322.442963 
	C197.595566,324.205200 194.843994,326.879150 195.233322,331.654907 
	C197.997574,332.076904 200.600464,332.474274 204.009918,332.883057 
M255.976318,344.908844 
	C255.955078,337.923950 255.808685,330.936340 255.960724,323.955200 
	C256.048431,319.928040 253.381714,320.301331 250.925873,320.459076 
	C248.572662,320.610229 245.132217,319.156891 245.152603,323.695587 
	C245.188446,331.678040 244.819382,339.685272 245.328568,347.636719 
	C245.946259,357.282318 255.614914,362.442505 264.323425,358.199188 
	C265.454285,357.648132 266.509552,356.942017 266.861908,356.737030 
	C270.580109,360.483704 274.502747,358.544586 278.707306,358.810242 
	C278.707306,346.552307 279.050934,334.612671 278.518463,322.712280 
	C278.335327,318.618958 273.956604,320.888184 271.477478,320.480957 
	C269.058289,320.083527 267.890442,321.267639 267.945404,323.916931 
	C268.076385,330.234161 267.969391,336.556091 267.991516,342.875977 
	C268.003540,346.315674 267.146851,349.281586 263.342010,350.107025 
	C259.732208,350.890167 257.186432,349.432404 255.976318,344.908844 
M344.543549,321.826477 
	C335.991364,326.838226 332.622894,336.840179 335.931305,347.398743 
	C338.610596,355.949554 346.897675,361.017120 355.717407,359.498016 
	C367.191864,357.521606 373.191864,346.485809 369.985535,333.254822 
	C367.333374,322.310822 357.193451,317.485046 344.543549,321.826477 
M100.021561,409.468506 
	C100.020996,405.801849 100.040108,402.135071 100.015953,398.468567 
	C99.957878,389.651489 95.121826,384.537689 86.232758,384.126770 
	C81.908272,383.926849 77.552788,384.292023 73.239067,383.996521 
	C69.402313,383.733704 67.979218,384.826324 68.076027,388.951599 
	C68.353546,400.778381 68.160698,412.615936 68.191299,424.449158 
	C68.194992,425.875427 68.435402,427.301117 68.592659,429.016846 
	C70.393547,429.016846 71.711800,429.022125 73.029999,429.015900 
	C77.862816,428.993073 82.710190,429.195312 87.525078,428.888672 
	C95.152718,428.402954 99.909180,423.115417 100.014992,415.450623 
	C100.037994,413.784241 100.020454,412.117340 100.021561,409.468506 
M328.021454,396.046021 
	C325.570801,397.302277 323.120117,398.558502 320.638458,399.830627 
	C314.773468,394.862274 310.954132,394.533203 305.116333,397.574097 
	C301.370575,396.835846 299.001678,396.368958 296.299377,395.836334 
	C296.299377,407.424591 296.299377,418.096222 296.299377,428.690125 
	C298.678467,428.690125 300.607483,428.690125 302.834595,428.690125 
	C302.922638,426.773529 303.051605,425.149170 303.061707,423.524109 
	C303.092804,418.533478 303.046844,413.542236 303.091980,408.551788 
	C303.125854,404.807281 305.075378,402.433472 308.788330,402.327484 
	C312.292511,402.227478 314.203003,404.614807 314.729492,407.919708 
	C315.014465,409.708435 314.884674,411.567841 314.890533,413.395538 
	C314.906799,418.486267 314.896179,423.577118 314.896179,428.554382 
	C317.718811,428.554382 319.757141,428.554382 322.078552,428.554382 
	C322.078552,426.457703 322.078094,424.806793 322.078644,423.155884 
	C322.080170,418.664124 322.055115,414.172180 322.092041,409.680695 
	C322.124542,405.729218 323.702393,402.544800 327.928284,402.356720 
	C332.358215,402.159607 333.761963,405.454590 333.907410,409.358124 
	C333.975494,411.185638 333.927063,413.017639 333.927582,414.847595 
	C333.928864,419.439331 333.927979,424.031036 333.927979,428.572693 
	C336.724884,428.572693 338.764648,428.572693 341.106140,428.572693 
	C341.106140,421.341858 341.155792,414.535126 341.093689,407.729431 
	C341.014038,398.996216 337.761566,395.915070 328.021454,396.046021 
M272.545593,429.070068 
	C279.764893,430.594299 285.362762,428.014984 287.673767,421.289154 
	C288.823029,417.944458 289.026093,414.125763 288.951019,410.536255 
	C288.689941,398.052551 279.290588,392.553253 268.400360,397.581787 
	C266.298065,396.765076 264.056519,396.099609 261.998749,396.466125 
	C261.204987,396.607483 260.353607,399.087280 260.337250,400.510986 
	C260.203552,412.148071 260.250153,423.787415 260.272186,435.425964 
	C260.275513,437.183014 260.434967,438.939758 260.516937,440.590942 
	C263.336334,440.590942 265.534760,440.590942 268.191528,440.590942 
	C268.191528,435.930664 268.191528,431.722961 268.191528,426.970825 
	C269.788055,427.792572 270.796783,428.311798 272.545593,429.070068 
M355.830048,417.223328 
	C357.206543,416.513580 358.558746,415.253601 359.963898,415.191467 
	C365.389618,414.951569 370.832214,415.094055 376.163818,415.094055 
	C377.494019,405.806763 373.032684,397.636658 366.273712,396.163574 
	C357.682068,394.291077 350.227142,398.503387 348.323181,406.306213 
	C345.881409,416.313171 349.949951,426.423065 357.376526,428.802887 
	C365.118622,431.283783 372.429108,428.517456 374.937012,421.893280 
	C373.714844,421.016357 372.423737,420.089966 371.216370,419.223633 
	C363.901276,424.810364 359.092133,424.371826 355.830048,417.223328 
M383.196625,402.649231 
	C383.196625,411.256592 383.196625,419.863983 383.196625,428.665497 
	C386.072083,428.665497 388.282166,428.665497 390.982605,428.665497 
	C390.982605,422.698059 390.967377,417.074402 390.986664,411.450867 
	C391.008148,405.191589 392.902039,402.507996 397.177734,402.608521 
	C401.231995,402.703827 403.027435,405.320923 403.043610,411.221832 
	C403.059418,416.992737 403.047089,422.763672 403.047089,428.631775 
	C405.949493,428.631775 408.159210,428.631775 410.851135,428.631775 
	C410.851135,421.959412 410.880646,415.667725 410.844849,409.376434 
	C410.775848,397.254669 402.081421,392.338409 391.472473,397.672394 
	C389.377960,396.819061 386.933044,395.766418 385.129822,396.437622 
	C383.990173,396.861847 383.808411,399.859528 383.196625,402.649231 
M109.931343,424.458954 
	C117.662628,432.169342 128.021744,431.442291 133.846161,422.422913 
	C132.575790,421.329559 131.259033,420.196259 129.815887,418.954193 
	C126.300041,422.574402 122.410675,424.637939 118.026199,422.083435 
	C116.038803,420.925568 114.923996,418.270020 113.413345,416.293884 
	C113.810936,415.893829 114.208527,415.493744 114.606117,415.093689 
	C117.915276,415.093689 121.224426,415.093689 124.533585,415.093689 
	C127.950073,415.093689 131.366562,415.093689 134.973709,415.093689 
	C134.973709,413.116638 135.028763,411.957947 134.965027,410.805847 
	C134.437241,401.264648 129.486313,395.994354 121.004372,395.913849 
	C112.164963,395.829926 106.510017,401.005951 106.432640,410.538574 
	C106.396622,414.977020 108.382690,419.431854 109.931343,424.458954 
M200.504791,404.276917 
	C197.068542,397.302368 192.699982,395.009979 184.772125,396.021362 
	C178.983322,396.759857 174.807632,400.888062 173.814514,407.844482 
	C173.312027,411.364288 173.535385,415.140930 174.226852,418.644287 
	C175.453583,424.859497 179.973526,428.903168 186.286942,429.546906 
	C192.242264,430.154114 197.406815,428.422272 200.993271,422.565063 
	C199.589081,421.346069 198.279526,420.209259 196.835175,418.955383 
	C193.321503,422.535065 189.442307,424.640991 185.056244,422.098938 
	C183.056473,420.939911 181.923096,418.286011 180.396744,416.310150 
	C180.785583,415.833130 181.174423,415.356110 181.563263,414.879089 
	C188.299591,414.879089 195.035934,414.879089 202.428726,414.879089 
	C201.816940,411.142487 201.314621,408.074554 200.504791,404.276917 
M223.444977,410.860535 
	C223.441391,420.843018 226.912308,426.969635 233.665680,428.901398 
	C241.215347,431.060944 248.160889,428.184601 251.365891,421.571198 
	C255.083267,413.900604 253.144165,402.946075 247.302841,398.617828 
	C237.594498,391.424133 225.538208,397.251495 223.444977,410.860535 
M314.044037,320.221527 
	C312.133423,321.130707 310.222809,322.039886 308.312164,322.949036 
	C308.364532,322.490906 308.416901,322.032776 308.469269,321.574615 
	C304.773041,321.150452 301.076782,320.726288 297.297729,320.292633 
	C297.297729,333.877502 297.297729,346.239197 297.297729,358.715149 
	C300.744629,358.715149 303.817749,358.715149 307.593994,358.715149 
	C307.593994,352.178802 307.552765,345.910339 307.605347,339.642639 
	C307.660156,333.111725 309.636444,331.184204 316.276062,331.012878 
	C317.079163,330.992157 317.883270,331.010071 318.583099,331.010071 
	C322.343842,319.554657 320.322021,320.093262 314.044037,320.221527 
M159.843277,399.272919 
	C158.117905,405.074860 156.392532,410.876770 154.667175,416.678711 
	C152.169205,411.742432 150.689911,406.735626 149.212036,401.728363 
	C147.319580,395.316406 146.715332,394.996643 139.620621,397.179230 
	C142.915756,407.234039 146.063553,417.341156 149.709595,427.265259 
	C150.118729,428.378937 153.427658,429.061401 155.246597,428.825195 
	C156.739456,428.631317 158.753448,427.038940 159.267609,425.609955 
	C162.302750,417.173981 164.993164,408.612976 167.721512,400.069092 
	C168.049637,399.041595 167.906616,397.863678 168.105804,394.933105 
	C164.766052,396.403442 162.398651,397.445679 159.843277,399.272919 
M422.848785,387.562958 
	C421.880981,390.113281 420.913177,392.663605 419.703430,395.851410 
	C419.165009,395.981812 417.774628,396.318573 416.260803,396.685211 
	C416.260803,398.499054 416.260803,400.110321 416.260803,401.811249 
	C417.812256,402.322479 419.191528,402.776978 420.917542,403.345703 
	C420.917542,408.366638 420.904877,413.334930 420.920227,418.303162 
	C420.949097,427.637817 425.284271,430.747925 434.750977,428.153290 
	C434.750977,426.412262 434.750977,424.648071 434.750977,422.883881 
	C431.921204,421.994354 428.622498,420.574341 428.343567,418.703949 
	C427.577576,413.567841 428.079285,408.242645 428.079285,403.655975 
	C430.889313,401.450226 435.482513,404.745239 435.745605,399.648315 
	C436.051758,393.716217 430.555542,397.483459 428.582062,395.614532 
	C426.638763,392.943542 430.810974,386.820496 422.848785,387.562958 
M209.001770,399.504028 
	C209.001770,409.245026 209.001770,418.985992 209.001770,428.622406 
	C216.692688,429.336243 216.704926,429.336243 216.710968,422.854065 
	C216.721054,412.030151 216.719284,401.206268 216.711716,390.382355 
	C216.706970,383.592804 216.427094,383.375336 209.001770,384.792542 
	C209.001770,389.275116 209.001770,393.890564 209.001770,399.504028 
z"/>
<path fill="#3AB7FF" opacity="1.000000" stroke="none" 
	d="
M313.631958,164.598206 
	C294.530365,179.420578 275.637329,193.926559 256.935608,208.675171 
	C253.829376,211.124817 251.893463,211.080322 248.868866,208.643555 
	C236.677521,198.821487 224.195999,189.359268 212.021744,179.516663 
	C210.407394,178.211517 209.311096,175.550781 209.081085,173.399567 
	C208.626801,169.150696 208.947083,164.819016 208.947083,159.375641 
	C216.206909,164.989426 222.724777,169.999115 229.209030,175.051971 
	C235.910019,180.273712 242.687988,185.405853 249.209808,190.844055 
	C252.027023,193.193176 253.995422,193.177155 256.903717,190.898880 
	C280.766724,172.205032 304.752106,153.667343 328.707031,135.090866 
	C330.130188,133.987244 331.610870,132.957794 333.698120,131.430328 
	C333.698120,178.076141 333.698120,224.048019 333.698120,270.343903 
	C329.623016,270.343903 325.549194,270.343903 320.961182,270.343903 
	C320.961182,233.561447 320.961182,196.999313 320.961182,159.197586 
	C318.016998,161.352722 315.960754,162.857880 313.631958,164.598206 
z"/>
<path fill="#3CB7FF" opacity="1.000000" stroke="none" 
	d="
M188.109314,204.000000 
	C188.109360,175.440948 188.109360,147.381912 188.109360,118.023872 
	C194.570251,122.951126 200.068604,127.107918 205.528168,131.315018 
	C219.499329,142.081116 233.367920,152.983398 247.478989,163.562500 
	C250.672058,165.956360 251.978836,168.456177 251.681244,172.319122 
	C251.402527,175.937134 251.621582,179.593475 251.621582,184.597992 
	C235.044342,171.718277 219.314011,159.496582 202.828873,146.688431 
	C202.716278,149.255081 202.575241,150.978943 202.574661,152.702835 
	C202.561981,189.995377 202.482880,227.288315 202.668793,264.579926 
	C202.692093,269.250000 201.677765,271.388184 196.692413,270.733276 
	C194.106079,270.393524 191.438339,270.673462 188.109253,270.673462 
	C188.109253,248.305573 188.109253,226.402786 188.109314,204.000000 
z"/>
<path fill="#B39F86" opacity="1.000000" stroke="none" 
	d="
M314.134521,195.000259 
	C314.134644,220.288132 314.134644,245.076080 314.134644,270.674988 
	C310.056610,270.674988 306.267487,270.996582 302.604004,270.460083 
	C301.627655,270.317108 300.381165,267.551453 300.367920,265.980560 
	C300.212250,247.503342 300.267914,229.024323 300.267853,210.545776 
	C300.267853,208.269379 300.267853,205.992996 300.267853,202.530029 
	C283.798248,215.181747 268.191345,227.170746 252.510681,239.216400 
	C249.028107,231.197311 251.178711,222.685165 257.513458,217.761368 
	C274.848969,204.287079 292.139343,190.754822 309.458221,177.259125 
	C310.723114,176.273483 312.072968,175.396942 314.134430,173.938126 
	C314.134430,181.344070 314.134430,187.922195 314.134521,195.000259 
z"/>
<path fill="#B29F85" opacity="1.000000" stroke="none" 
	d="
M181.163910,226.000000 
	C181.164017,240.974701 181.164017,255.449417 181.164017,270.326904 
	C176.728638,270.326904 172.680267,270.326904 168.263855,270.326904 
	C168.263855,223.335358 168.263855,176.442307 168.263855,129.569824 
	C176.371704,132.141037 181.163712,138.418106 181.163727,146.534683 
	C181.163757,172.856461 181.163773,199.178223 181.163910,226.000000 
z"/>
<path fill="#3DB8FF" opacity="1.000000" stroke="none" 
	d="
M165.228485,309.081482 
	C168.996643,307.788849 172.570923,306.815979 176.741867,305.680725 
	C176.741867,324.283722 176.741867,341.343048 176.741867,358.706757 
	C173.382568,358.706757 170.291412,358.706757 166.627701,358.706757 
	C166.627701,348.118774 166.627701,337.545624 166.627701,326.972473 
	C166.198547,326.815186 165.769394,326.657928 165.340240,326.500671 
	C163.526550,329.456116 161.756744,332.439667 159.888992,335.360535 
	C156.996933,339.883301 153.102631,339.907867 150.212296,335.399597 
	C148.353973,332.501038 146.637207,329.511688 143.938721,326.748627 
	C143.938721,337.237762 143.938721,347.726898 143.938721,358.607178 
	C140.157852,358.607178 136.956100,358.607178 133.391968,358.607178 
	C133.391968,341.451660 133.391968,324.390137 133.391968,307.353851 
	C141.369736,305.333588 143.012238,305.967163 146.976471,312.413483 
	C149.411377,316.372925 151.893753,320.303162 154.995880,325.273712 
	C158.595261,319.582672 161.814941,314.491974 165.228485,309.081482 
z"/>
<path fill="#3EB8FF" opacity="1.000000" stroke="none" 
	d="
M203.606628,332.877319 
	C200.600464,332.474274 197.997574,332.076904 195.233322,331.654907 
	C194.843994,326.879150 197.595566,324.205200 200.994919,322.442963 
	C207.763000,318.934418 214.968216,318.624847 221.454102,322.702057 
	C224.248260,324.458527 227.341934,328.067719 227.610779,331.075562 
	C228.418152,340.108673 227.901581,349.260101 227.901581,359.365784 
	C223.662857,358.837219 219.973038,358.377075 216.605850,357.957184 
	C212.110580,358.403870 207.575729,359.570404 203.210083,359.114990 
	C197.156952,358.483459 194.214371,354.669067 193.993973,349.184998 
	C193.753922,343.211761 196.708435,338.565735 202.450653,337.289032 
	C207.092438,336.256958 211.942108,336.159912 217.770447,335.532898 
	C216.768753,333.506653 216.278519,330.745605 214.992798,330.304840 
	C212.738449,329.531982 209.946426,329.904633 207.479431,330.350037 
	C206.211807,330.578888 205.159515,332.000458 203.606628,332.877319 
M205.905746,350.398041 
	C209.279510,352.804260 212.733292,352.149994 215.347748,349.597992 
	C216.748795,348.230377 216.840073,345.520996 217.704956,342.854279 
	C214.310043,342.854279 212.179459,342.701660 210.078247,342.885345 
	C205.409027,343.293549 204.433151,344.806854 205.905746,350.398041 
z"/>
<path fill="#40B9FF" opacity="1.000000" stroke="none" 
	d="
M256.025360,345.347992 
	C257.186432,349.432404 259.732208,350.890167 263.342010,350.107025 
	C267.146851,349.281586 268.003540,346.315674 267.991516,342.875977 
	C267.969391,336.556091 268.076385,330.234161 267.945404,323.916931 
	C267.890442,321.267639 269.058289,320.083527 271.477478,320.480957 
	C273.956604,320.888184 278.335327,318.618958 278.518463,322.712280 
	C279.050934,334.612671 278.707306,346.552307 278.707306,358.810242 
	C274.502747,358.544586 270.580109,360.483704 266.861908,356.737030 
	C266.509552,356.942017 265.454285,357.648132 264.323425,358.199188 
	C255.614914,362.442505 245.946259,357.282318 245.328568,347.636719 
	C244.819382,339.685272 245.188446,331.678040 245.152603,323.695587 
	C245.132217,319.156891 248.572662,320.610229 250.925873,320.459076 
	C253.381714,320.301331 256.048431,319.928040 255.960724,323.955200 
	C255.808685,330.936340 255.955078,337.923950 256.025360,345.347992 
z"/>
<path fill="#3DB8FF" opacity="1.000000" stroke="none" 
	d="
M344.894501,321.653503 
	C357.193451,317.485046 367.333374,322.310822 369.985535,333.254822 
	C373.191864,346.485809 367.191864,357.521606 355.717407,359.498016 
	C346.897675,361.017120 338.610596,355.949554 335.931305,347.398743 
	C332.622894,336.840179 335.991364,326.838226 344.894501,321.653503 
M346.847168,332.788483 
	C346.584717,336.718048 345.891754,340.680542 346.188843,344.567352 
	C346.451569,348.004608 349.060425,350.855164 352.517883,350.283203 
	C354.944733,349.881714 357.919586,347.605011 358.963287,345.376038 
	C360.199738,342.735413 360.361786,339.054047 359.612915,336.182800 
	C358.952789,333.651855 356.804962,330.553009 354.553467,329.690582 
	C352.697418,328.979675 349.727814,331.175903 346.847168,332.788483 
z"/>
<path fill="#B6A28A" opacity="1.000000" stroke="none" 
	d="
M100.021576,409.959595 
	C100.020454,412.117340 100.037994,413.784241 100.014992,415.450623 
	C99.909180,423.115417 95.152718,428.402954 87.525078,428.888672 
	C82.710190,429.195312 77.862816,428.993073 73.029999,429.015900 
	C71.711800,429.022125 70.393547,429.016846 68.592659,429.016846 
	C68.435402,427.301117 68.194992,425.875427 68.191299,424.449158 
	C68.160698,412.615936 68.353546,400.778381 68.076027,388.951599 
	C67.979218,384.826324 69.402313,383.733704 73.239067,383.996521 
	C77.552788,384.292023 81.908272,383.926849 86.232758,384.126770 
	C95.121826,384.537689 99.957878,389.651489 100.015953,398.468567 
	C100.040108,402.135071 100.020996,405.801849 100.021576,409.959595 
M75.950584,419.225311 
	C76.118317,420.184357 75.941452,421.515869 76.509903,422.041779 
	C80.100304,425.363586 91.452919,421.959320 91.934845,417.046295 
	C92.610832,410.154877 92.494621,403.117004 91.891312,396.213959 
	C91.726486,394.328064 88.861099,391.729919 86.779831,391.179321 
	C83.559372,390.327271 79.947525,390.954590 75.949371,390.954590 
	C75.949371,400.379883 75.949371,409.332581 75.950584,419.225311 
z"/>
<path fill="#B39F86" opacity="1.000000" stroke="none" 
	d="
M328.435364,396.011444 
	C337.761566,395.915070 341.014038,398.996216 341.093689,407.729431 
	C341.155792,414.535126 341.106140,421.341858 341.106140,428.572693 
	C338.764648,428.572693 336.724884,428.572693 333.927979,428.572693 
	C333.927979,424.031036 333.928864,419.439331 333.927582,414.847595 
	C333.927063,413.017639 333.975494,411.185638 333.907410,409.358124 
	C333.761963,405.454590 332.358215,402.159607 327.928284,402.356720 
	C323.702393,402.544800 322.124542,405.729218 322.092041,409.680695 
	C322.055115,414.172180 322.080170,418.664124 322.078644,423.155884 
	C322.078094,424.806793 322.078552,426.457703 322.078552,428.554382 
	C319.757141,428.554382 317.718811,428.554382 314.896179,428.554382 
	C314.896179,423.577118 314.906799,418.486267 314.890533,413.395538 
	C314.884674,411.567841 315.014465,409.708435 314.729492,407.919708 
	C314.203003,404.614807 312.292511,402.227478 308.788330,402.327484 
	C305.075378,402.433472 303.125854,404.807281 303.091980,408.551788 
	C303.046844,413.542236 303.092804,418.533478 303.061707,423.524109 
	C303.051605,425.149170 302.922638,426.773529 302.834595,428.690125 
	C300.607483,428.690125 298.678467,428.690125 296.299377,428.690125 
	C296.299377,418.096222 296.299377,407.424591 296.299377,395.836334 
	C299.001678,396.368958 301.370575,396.835846 305.116333,397.574097 
	C310.954132,394.533203 314.773468,394.862274 320.638458,399.830627 
	C323.120117,398.558502 325.570801,397.302277 328.435364,396.011444 
z"/>
<path fill="#B4A087" opacity="1.000000" stroke="none" 
	d="
M272.175537,428.950562 
	C270.796783,428.311798 269.788055,427.792572 268.191528,426.970825 
	C268.191528,431.722961 268.191528,435.930664 268.191528,440.590942 
	C265.534760,440.590942 263.336334,440.590942 260.516937,440.590942 
	C260.434967,438.939758 260.275513,437.183014 260.272186,435.425964 
	C260.250153,423.787415 260.203552,412.148071 260.337250,400.510986 
	C260.353607,399.087280 261.204987,396.607483 261.998749,396.466125 
	C264.056519,396.099609 266.298065,396.765076 268.400360,397.581787 
	C279.290588,392.553253 288.689941,398.052551 288.951019,410.536255 
	C289.026093,414.125763 288.823029,417.944458 287.673767,421.289154 
	C285.362762,428.014984 279.764893,430.594299 272.175537,428.950562 
M281.172638,414.309662 
	C281.065277,412.157410 281.666626,409.572693 280.680542,407.956635 
	C279.285004,405.669586 276.883240,402.931244 274.596619,402.607025 
	C272.917877,402.368988 270.113800,405.363770 268.956085,407.529724 
	C267.882843,409.537598 267.935211,412.399567 268.194977,414.809692 
	C268.609741,418.658112 269.480988,422.850006 274.513428,422.914368 
	C279.378113,422.976562 280.825684,419.407532 281.172638,414.309662 
z"/>
<path fill="#B4A188" opacity="1.000000" stroke="none" 
	d="
M355.872986,417.645386 
	C359.092133,424.371826 363.901276,424.810364 371.216370,419.223633 
	C372.423737,420.089966 373.714844,421.016357 374.937012,421.893280 
	C372.429108,428.517456 365.118622,431.283783 357.376526,428.802887 
	C349.949951,426.423065 345.881409,416.313171 348.323181,406.306213 
	C350.227142,398.503387 357.682068,394.291077 366.273712,396.163574 
	C373.032684,397.636658 377.494019,405.806763 376.163818,415.094055 
	C370.832214,415.094055 365.389618,414.951569 359.963898,415.191467 
	C358.558746,415.253601 357.206543,416.513580 355.872986,417.645386 
M363.133148,402.202118 
	C357.330536,402.745544 356.078247,404.036652 356.283325,409.466766 
	C360.411926,409.466766 364.541809,409.466766 368.671692,409.466766 
	C368.986725,409.015198 369.301788,408.563629 369.616821,408.112061 
	C367.703705,406.213867 365.790588,404.315674 363.133148,402.202118 
z"/>
<path fill="#B7A48B" opacity="1.000000" stroke="none" 
	d="
M383.196838,402.176086 
	C383.808411,399.859528 383.990173,396.861847 385.129822,396.437622 
	C386.933044,395.766418 389.377960,396.819061 391.472473,397.672394 
	C402.081421,392.338409 410.775848,397.254669 410.844849,409.376434 
	C410.880646,415.667725 410.851135,421.959412 410.851135,428.631775 
	C408.159210,428.631775 405.949493,428.631775 403.047089,428.631775 
	C403.047089,422.763672 403.059418,416.992737 403.043610,411.221832 
	C403.027435,405.320923 401.231995,402.703827 397.177734,402.608521 
	C392.902039,402.507996 391.008148,405.191589 390.986664,411.450867 
	C390.967377,417.074402 390.982605,422.698059 390.982605,428.665497 
	C388.282166,428.665497 386.072083,428.665497 383.196625,428.665497 
	C383.196625,419.863983 383.196625,411.256592 383.196838,402.176086 
z"/>
<path fill="#B4A188" opacity="1.000000" stroke="none" 
	d="
M109.691757,424.169128 
	C108.382690,419.431854 106.396622,414.977020 106.432640,410.538574 
	C106.510017,401.005951 112.164963,395.829926 121.004372,395.913849 
	C129.486313,395.994354 134.437241,401.264648 134.965027,410.805847 
	C135.028763,411.957947 134.973709,413.116638 134.973709,415.093689 
	C131.366562,415.093689 127.950073,415.093689 124.533585,415.093689 
	C121.224426,415.093689 117.915276,415.093689 114.606117,415.093689 
	C114.208527,415.493744 113.810936,415.893829 113.413345,416.293884 
	C114.923996,418.270020 116.038803,420.925568 118.026199,422.083435 
	C122.410675,424.637939 126.300041,422.574402 129.815887,418.954193 
	C131.259033,420.196259 132.575790,421.329559 133.846161,422.422913 
	C128.021744,431.442291 117.662628,432.169342 109.691757,424.169128 
M123.246254,409.894104 
	C124.510178,409.425385 126.637260,409.187469 126.838562,408.434601 
	C127.151459,407.264465 126.539970,404.981049 125.635567,404.523743 
	C123.450233,403.418793 120.487984,402.041779 118.549057,402.741638 
	C116.397583,403.518250 115.034508,406.479034 113.328148,408.488770 
	C113.708351,408.957336 114.088547,409.425873 114.468750,409.894440 
	C117.091812,409.894440 119.714882,409.894440 123.246254,409.894104 
z"/>
<path fill="#B4A188" opacity="1.000000" stroke="none" 
	d="
M200.658554,404.641754 
	C201.314621,408.074554 201.816940,411.142487 202.428726,414.879089 
	C195.035934,414.879089 188.299591,414.879089 181.563263,414.879089 
	C181.174423,415.356110 180.785583,415.833130 180.396744,416.310150 
	C181.923096,418.286011 183.056473,420.939911 185.056244,422.098938 
	C189.442307,424.640991 193.321503,422.535065 196.835175,418.955383 
	C198.279526,420.209259 199.589081,421.346069 200.993271,422.565063 
	C197.406815,428.422272 192.242264,430.154114 186.286942,429.546906 
	C179.973526,428.903168 175.453583,424.859497 174.226852,418.644287 
	C173.535385,415.140930 173.312027,411.364288 173.814514,407.844482 
	C174.807632,400.888062 178.983322,396.759857 184.772125,396.021362 
	C192.699982,395.009979 197.068542,397.302368 200.658554,404.641754 
M193.483353,405.417755 
	C191.256653,402.345947 188.356308,401.180817 184.805969,402.776581 
	C181.948654,404.060913 180.801971,406.381561 181.492050,409.890625 
	C184.822617,409.890625 187.963654,409.797546 191.096512,409.917633 
	C194.040680,410.030487 194.488434,408.546082 193.483353,405.417755 
z"/>
<path fill="#B4A187" opacity="1.000000" stroke="none" 
	d="
M223.537018,410.460510 
	C225.538208,397.251495 237.594498,391.424133 247.302841,398.617828 
	C253.144165,402.946075 255.083267,413.900604 251.365891,421.571198 
	C248.160889,428.184601 241.215347,431.060944 233.665680,428.901398 
	C226.912308,426.969635 223.441391,420.843018 223.537018,410.460510 
M243.369934,420.853241 
	C246.191345,416.470612 246.540146,411.576385 244.635071,407.051483 
	C243.740326,404.926300 240.663010,402.536377 238.501389,402.464203 
	C236.379074,402.393341 233.199448,404.655121 232.230362,406.714905 
	C230.985550,409.360748 230.939163,412.898743 231.341217,415.924194 
	C232.233566,422.638916 236.637115,424.571503 243.369934,420.853241 
z"/>
<path fill="#3AB7FF" opacity="1.000000" stroke="none" 
	d="
M314.436493,320.167725 
	C320.322021,320.093262 322.343842,319.554657 318.583099,331.010071 
	C317.883270,331.010071 317.079163,330.992157 316.276062,331.012878 
	C309.636444,331.184204 307.660156,333.111725 307.605347,339.642639 
	C307.552765,345.910339 307.593994,352.178802 307.593994,358.715149 
	C303.817749,358.715149 300.744629,358.715149 297.297729,358.715149 
	C297.297729,346.239197 297.297729,333.877502 297.297729,320.292633 
	C301.076782,320.726288 304.773041,321.150452 308.469269,321.574615 
	C308.416901,322.032776 308.364532,322.490906 308.312164,322.949036 
	C310.222809,322.039886 312.133423,321.130707 314.436493,320.167725 
z"/>
<path fill="#B6A28A" opacity="1.000000" stroke="none" 
	d="
M159.937256,398.880432 
	C162.398651,397.445679 164.766052,396.403442 168.105804,394.933105 
	C167.906616,397.863678 168.049637,399.041595 167.721512,400.069092 
	C164.993164,408.612976 162.302750,417.173981 159.267609,425.609955 
	C158.753448,427.038940 156.739456,428.631317 155.246597,428.825195 
	C153.427658,429.061401 150.118729,428.378937 149.709595,427.265259 
	C146.063553,417.341156 142.915756,407.234039 139.620621,397.179230 
	C146.715332,394.996643 147.319580,395.316406 149.212036,401.728363 
	C150.689911,406.735626 152.169205,411.742432 154.667175,416.678711 
	C156.392532,410.876770 158.117905,405.074860 159.937256,398.880432 
z"/>
<path fill="#B4A087" opacity="1.000000" stroke="none" 
	d="
M423.258575,387.509460 
	C430.810974,386.820496 426.638763,392.943542 428.582062,395.614532 
	C430.555542,397.483459 436.051758,393.716217 435.745605,399.648315 
	C435.482513,404.745239 430.889313,401.450226 428.079285,403.655975 
	C428.079285,408.242645 427.577576,413.567841 428.343567,418.703949 
	C428.622498,420.574341 431.921204,421.994354 434.750977,422.883881 
	C434.750977,424.648071 434.750977,426.412262 434.750977,428.153290 
	C425.284271,430.747925 420.949097,427.637817 420.920227,418.303162 
	C420.904877,413.334930 420.917542,408.366638 420.917542,403.345703 
	C419.191528,402.776978 417.812256,402.322479 416.260803,401.811249 
	C416.260803,400.110321 416.260803,398.499054 416.260803,396.685211 
	C417.774628,396.318573 419.165009,395.981812 419.703430,395.851410 
	C420.913177,392.663605 421.880981,390.113281 423.258575,387.509460 
z"/>
<path fill="#B29F85" opacity="1.000000" stroke="none" 
	d="
M209.001770,399.005035 
	C209.001770,393.890564 209.001770,389.275116 209.001770,384.792542 
	C216.427094,383.375336 216.706970,383.592804 216.711716,390.382355 
	C216.719284,401.206268 216.721054,412.030151 216.710968,422.854065 
	C216.704926,429.336243 216.692688,429.336243 209.001770,428.622406 
	C209.001770,418.985992 209.001770,409.245026 209.001770,399.005035 
z"/>
<path fill="#FAFDFF" opacity="1.000000" stroke="none" 
	d="
M205.627563,350.102783 
	C204.433151,344.806854 205.409027,343.293549 210.078247,342.885345 
	C212.179459,342.701660 214.310043,342.854279 217.704956,342.854279 
	C216.840073,345.520996 216.748795,348.230377 215.347748,349.597992 
	C212.733292,352.149994 209.279510,352.804260 205.627563,350.102783 
z"/>
<path fill="#FAFDFF" opacity="1.000000" stroke="none" 
	d="
M347.049438,332.436157 
	C349.727814,331.175903 352.697418,328.979675 354.553467,329.690582 
	C356.804962,330.553009 358.952789,333.651855 359.612915,336.182800 
	C360.361786,339.054047 360.199738,342.735413 358.963287,345.376038 
	C357.919586,347.605011 354.944733,349.881714 352.517883,350.283203 
	C349.060425,350.855164 346.451569,348.004608 346.188843,344.567352 
	C345.891754,340.680542 346.584717,336.718048 347.049438,332.436157 
z"/>
<path fill="#FDFCFC" opacity="1.000000" stroke="none" 
	d="
M75.949982,418.755310 
	C75.949371,409.332581 75.949371,400.379883 75.949371,390.954590 
	C79.947525,390.954590 83.559372,390.327271 86.779831,391.179321 
	C88.861099,391.729919 91.726486,394.328064 91.891312,396.213959 
	C92.494621,403.117004 92.610832,410.154877 91.934845,417.046295 
	C91.452919,421.959320 80.100304,425.363586 76.509903,422.041779 
	C75.941452,421.515869 76.118317,420.184357 75.949982,418.755310 
z"/>
<path fill="#FDFCFC" opacity="1.000000" stroke="none" 
	d="
M281.147827,414.749969 
	C280.825684,419.407532 279.378113,422.976562 274.513428,422.914368 
	C269.480988,422.850006 268.609741,418.658112 268.194977,414.809692 
	C267.935211,412.399567 267.882843,409.537598 268.956085,407.529724 
	C270.113800,405.363770 272.917877,402.368988 274.596619,402.607025 
	C276.883240,402.931244 279.285004,405.669586 280.680542,407.956635 
	C281.666626,409.572693 281.065277,412.157410 281.147827,414.749969 
z"/>
<path fill="#F9F7F5" opacity="1.000000" stroke="none" 
	d="
M363.505310,402.309814 
	C365.790588,404.315674 367.703705,406.213867 369.616821,408.112061 
	C369.301788,408.563629 368.986725,409.015198 368.671692,409.466766 
	C364.541809,409.466766 360.411926,409.466766 356.283325,409.466766 
	C356.078247,404.036652 357.330536,402.745544 363.505310,402.309814 
z"/>
<path fill="#F9F7F5" opacity="1.000000" stroke="none" 
	d="
M122.792099,409.894287 
	C119.714882,409.894440 117.091812,409.894440 114.468750,409.894440 
	C114.088547,409.425873 113.708351,408.957336 113.328148,408.488770 
	C115.034508,406.479034 116.397583,403.518250 118.549057,402.741638 
	C120.487984,402.041779 123.450233,403.418793 125.635567,404.523743 
	C126.539970,404.981049 127.151459,407.264465 126.838562,408.434601 
	C126.637260,409.187469 124.510178,409.425385 122.792099,409.894287 
z"/>
<path fill="#F9F7F5" opacity="1.000000" stroke="none" 
	d="
M193.659332,405.785553 
	C194.488434,408.546082 194.040680,410.030487 191.096512,409.917633 
	C187.963654,409.797546 184.822617,409.890625 181.492050,409.890625 
	C180.801971,406.381561 181.948654,404.060913 184.805969,402.776581 
	C188.356308,401.180817 191.256653,402.345947 193.659332,405.785553 
z"/>
<path fill="#FCFCFB" opacity="1.000000" stroke="none" 
	d="
M243.091431,421.132935 
	C236.637115,424.571503 232.233566,422.638916 231.341217,415.924194 
	C230.939163,412.898743 230.985550,409.360748 232.230362,406.714905 
	C233.199448,404.655121 236.379074,402.393341 238.501389,402.464203 
	C240.663010,402.536377 243.740326,404.926300 244.635071,407.051483 
	C246.540146,411.576385 246.191345,416.470612 243.091431,421.132935 
z"/>
</svg>